<?xml version="1.0" encoding="utf-8"?>
<!DOCTYPE svg PUBLIC "-//W3C//DTD SVG 1.0//EN" "http://www.w3.org/TR/2001/REC-SVG-20010904/DTD/svg10.dtd">
<svg version="1.0" xmlns="http://www.w3.org/2000/svg" width="798px" height="790px" viewBox="0 0 798 790" preserveAspectRatio="xMidYMid meet">
 <g fill="#1e2d47">
  <path d="M0 395 l0 -395 399 0 399 0 0 395 0 395 -399 0 -399 0 0 -395z m410.50 215.80 c4.40 -3.95 6.65 -8.30 9.45 -18.35 1.10 -3.95 2.40 -9.10 2.80 -11.45 0.45 -2.35 1.05 -4.85 1.30 -5.60 0.70 -1.75 0.30 -2.30 -1.40 -2.05 -1.35 0.20 -1.40 0.35 -1.40 3.15 0 2.75 -0.15 3.10 -2 5 -1.50 1.50 -2.35 2 -3.75 2.10 -1.45 0.05 -1.30 0.10 0.75 0.35 2.45 0.30 2.50 0.35 2.65 2.15 0.35 4.40 -6.25 21.55 -9.25 23.90 -0.90 0.70 -2.05 1 -3.75 1 -2.65 0 -3.05 0.75 -0.95 1.80 1.60 0.85 3 0.35 5.55 -2z m-130.85 -13.10 c3.90 -0.85 12 -4.55 14.90 -6.80 1 -0.75 2.05 -1.40 2.35 -1.40 0.25 0 0.75 -0.35 1.10 -0.75 0.90 -1.10 0.35 -0.95 -3.45 1 -1.90 0.95 -6 2.75 -9.05 4 -5 2 -6.05 2.25 -9.55 2.25 -3.65 0 -4 -0.10 -4.75 -1.25 -1.40 -2.20 -0.65 -5.50 2.50 -11 5 -8.70 8.35 -12.40 13.75 -15.25 1.70 -0.90 3.05 -1.80 3.05 -2 0 -0.20 -1.35 -0.65 -3.05 -0.95 -1.70 -0.30 -3.30 -0.75 -3.65 -1 -0.40 -0.35 -0.50 0.20 -0.35 2.05 0.15 2.45 0.10 2.60 -2.55 5.35 -5.15 5.30 -9.05 10.70 -11.85 16.40 -0.85 1.70 -1.55 3.50 -1.55 4 0 1.80 2.40 4.55 4.60 5.30 2.80 1 3.30 1 7.55 0.05z m46.85 -3.80 l1.75 -1.10 -2.65 -0.30 c-2.95 -0.30 -3.60 -0.90 -3.60 -3.35 0 -2.35 0.85 -4.15 2.90 -6.25 1.65 -1.75 1.70 -1.90 0.70 -1.90 -0.95 0 -1.10 -0.25 -1.10 -2.25 0 -1.20 0.25 -2.80 0.60 -3.50 0.50 -1.05 0.90 -1.25 2.85 -1.25 l2.25 0 -1.10 -1.10 c-1.05 -1.10 -1.15 -1.10 -2.50 -0.30 -2.50 1.50 -4.55 5 -5.85 10 -1.50 5.65 -1.50 6.70 -0.30 9.55 1.35 3.15 3.05 3.65 6.05 1.75z m181.10 -1.70 c-0.10 -1.50 0.30 -4.30 1.10 -7.20 1.55 -5.90 2.20 -10.30 1.40 -9.80 -0.30 0.20 -1.85 2.65 -3.45 5.45 -4.80 8.55 -5.40 9.35 -7.50 9.35 l-1.80 0 0.35 -5.10 c0.15 -2.85 0.40 -6.25 0.55 -7.65 l0.20 -2.50 -0.50 2.50 c-1.15 5.75 -1.80 11.60 -1.40 12.85 0.65 2.35 0.90 2.45 2.85 1.15 1.05 -0.70 2.55 -1.25 3.50 -1.25 1.70 0 1.90 0.25 3.30 4.15 0.65 1.85 1.55 0.60 1.40 -1.95z m15.65 1.55 l1.50 -1.20 -2.65 -0.05 c-2.30 0 -2.70 -0.15 -3.15 -1.20 -1 -2.15 -0.15 -5.45 2.10 -8 1.80 -2 1.90 -2.30 1 -2.30 -0.90 0 -1.05 -0.30 -1.05 -1.85 0 -1 0.25 -2.60 0.60 -3.50 0.55 -1.45 0.80 -1.65 2.45 -1.65 1.55 0 1.90 0.20 2.10 1.15 0.20 0.75 0.25 0.70 0.20 -0.35 -0.05 -0.80 -0.55 -1.70 -1.10 -2.10 -0.90 -0.60 -1.25 -0.55 -2.60 0.30 -5.40 3.30 -8.40 19.25 -4 21.40 1.75 0.85 3 0.70 4.60 -0.65z m-149.30 -0.55 c0.55 -0.70 1.25 -2.05 1.55 -3 0.50 -1.55 0.50 -1.85 -0.30 -2.40 -0.80 -0.65 -0.85 -1.10 -0.30 -7.50 0.80 -8.95 1.90 -15.95 2.70 -17.50 0.35 -0.70 1.45 -1.85 2.40 -2.55 1.70 -1.25 1.70 -1.25 0.40 -1.25 -1.60 0 -1.90 -0.75 -1.90 -4.60 0 -2.15 -0.15 -2.95 -0.60 -2.80 -1.10 0.35 -2.10 3.05 -2.30 6.25 -0.25 3.50 -1.15 4.75 -4.10 5.55 l-1.75 0.50 1.50 0.05 c2.55 0.10 2.90 0.60 2.60 3.85 -0.40 4.45 -1.70 15.45 -2.35 19.65 -0.35 2.70 -0.35 4.20 0.05 5.40 0.65 2 1.05 2.05 2.40 0.35z m75.95 0.65 c0.45 -0.50 3.60 -8.20 3.60 -8.70 0 -0.10 -0.90 -0.15 -2 -0.15 -1.85 0 -2 -0.10 -2.45 -1.85 -0.30 -1.05 -0.55 -2.20 -0.55 -2.55 0 -0.35 -0.45 -2.60 -0.95 -5 -0.55 -2.40 -1.50 -6.95 -2.10 -10.10 -1.20 -6.30 -1.60 -7.50 -2.70 -7.50 -0.85 0 -1 2.90 -0.30 6.25 0.25 1.10 0.80 3.70 1.25 5.75 0.40 2.05 1 5.65 1.30 8 1.05 9.15 2.10 14.15 3.30 16.10 0.35 0.60 1 0.50 1.60 -0.25z m-138.70 -3.30 c1.45 -2.70 1.40 -3.55 -0.25 -3.55 -0.70 0 -0.95 -0.35 -0.95 -1.35 0 -1.80 1.60 -11.25 3.15 -18.65 1.70 -8.30 2.45 -13.40 2.05 -14.05 -0.50 -0.85 -1.50 1.30 -1.95 4.05 -0.20 1.25 -0.85 4.50 -1.50 7.25 -0.65 2.75 -1.65 7.80 -2.20 11.25 -1.45 8.70 -1.40 8.50 -2.70 8.55 -0.90 0.05 -0.95 0.10 -0.15 0.30 0.85 0.20 0.90 0.60 0.60 3.60 -0.40 4 0.30 6.30 1.65 5.55 0.50 -0.25 1.45 -1.55 2.25 -2.95z m176.05 0.45 c1.80 -2.95 1.90 -3.50 0.50 -4 -1.75 -0.65 -1.65 -2.20 0.70 -14.50 3.10 -16.15 3.50 -18.65 3.05 -19.50 -0.60 -1.05 -1.75 1.85 -2.20 5.45 -0.20 1.50 -1 5.45 -1.80 8.75 -0.75 3.35 -1.65 7.65 -1.95 9.55 -0.30 1.95 -0.90 5.60 -1.30 8.15 -0.90 5.60 -0.95 6.85 -0.15 8.10 0.75 1.15 1.45 0.70 3.15 -2z m-100.95 -5.95 c0.65 -3.20 1.45 -6.45 1.70 -7.25 0.40 -1.15 0.35 -1.65 -0.20 -2.20 -1.25 -1.25 -2.70 1 -3.05 4.85 -0.15 1.80 -0.70 5.15 -1.20 7.40 -0.60 2.80 -0.75 4.35 -0.40 4.95 0.45 0.75 0.55 0.70 1.20 -0.55 0.40 -0.75 1.30 -4 1.95 -7.20z m-48.15 6.80 c0.40 -0.65 1.45 -2.90 2.25 -5 l1.45 -3.80 -2.05 -0.15 -2.05 -0.15 -0.25 -3.75 c-0.20 -2.85 -0.45 -3.75 -1 -3.75 -1.15 0 -1.60 3.50 -1.25 9.65 0.40 7.70 1.20 9.55 2.90 6.95z m22.80 -2.95 c1.30 -8 1.50 -10.60 0.75 -11.75 -0.75 -1.20 -2.40 -1.50 -3.70 -0.65 -0.60 0.40 -0.45 0.50 0.55 0.50 2.75 0 2.60 3.30 -0.35 7.90 -2.30 3.65 -3.35 4.35 -5.75 4 -1 -0.10 -1.25 -0.50 -1.45 -2.40 -0.20 -1.65 -0.35 -2 -0.60 -1.35 -1.15 2.75 0.25 5.75 2.30 5.10 0.60 -0.20 2 -0.50 3.15 -0.60 1.80 -0.20 2.10 -0.10 2.40 0.95 0.45 1.45 1.25 2.45 1.75 2.15 0.20 -0.10 0.60 -1.85 0.95 -3.85z m114.95 0.60 c0.30 -1.50 0.85 -4.80 1.15 -7.35 0.50 -3.75 0.50 -4.70 0 -5.35 -0.70 -0.85 -2.40 -1.05 -3.90 -0.45 -0.75 0.30 -0.65 0.40 0.60 0.65 1.35 0.25 1.50 0.45 1.65 2.35 0.15 1.80 -0.20 2.65 -2.10 5.65 -2.30 3.50 -3.40 4.25 -5.85 3.90 -1 -0.10 -1.25 -0.50 -1.45 -2.15 -0.25 -1.95 -0.30 -1.95 -0.65 -0.60 -0.55 2.05 0.60 4.15 2.15 3.95 4.70 -0.60 6 -0.65 6 -0.20 0 1.15 1.05 3.25 1.45 2.80 0.20 -0.25 0.65 -1.70 0.95 -3.20z m-78.65 -0.55 c0.70 -0.90 1.85 -2.70 2.55 -4 l1.20 -2.45 -1.75 0 -1.75 0 0 -3.20 c0 -3.40 -0.70 -4.70 -1.45 -2.70 -0.65 1.80 -1.65 11.70 -1.30 12.85 0.45 1.45 0.95 1.30 2.50 -0.50z m9.65 -12.15 c-0.40 -0.50 -2.90 0.95 -2.90 1.70 0 0.30 0.55 0.50 1.25 0.50 0.95 0 1.25 0.30 1.30 1.15 0.05 0.60 0.25 0.20 0.40 -0.90 0.20 -1.10 0.20 -2.20 -0.05 -2.45z m-124.30 -16.40 c-0.25 -4.05 0.50 -6.45 2.65 -8.35 1.55 -1.35 2.20 -1.55 4.50 -1.55 2.30 0 2.75 -0.15 2.75 -0.90 0 -0.70 1.25 -1.20 6.15 -2.55 3.35 -0.95 7.90 -2.20 10.10 -2.85 2.20 -0.60 5.95 -1.50 8.25 -1.95 2.35 -0.45 6.60 -1.35 9.50 -2 11.60 -2.60 32.90 -6.10 41.40 -6.80 3.10 -0.25 6.15 -0.55 6.75 -0.70 2.60 -0.60 21 -2.30 30.85 -2.85 14.05 -0.75 52.35 -0.75 63.50 0.05 8.65 0.60 15.25 1.25 28.75 2.80 8.30 0.95 36.30 5.70 38.45 6.55 0.40 0.15 0.85 0.05 1 -0.25 0.35 -0.55 -0.15 -0.75 -5.45 -1.75 -15.85 -3.05 -24 -4.45 -29.85 -5.05 -3.70 -0.40 -8.20 -0.95 -10.05 -1.25 -8.10 -1.30 -27.10 -2.50 -43.85 -2.80 -26.40 -0.50 -53.15 0.80 -74 3.55 -2.90 0.40 -6.95 0.85 -9 1.05 -2.05 0.15 -6.10 0.75 -9 1.25 -2.90 0.50 -8.15 1.40 -11.75 1.95 -3.55 0.60 -10.60 1.95 -15.60 3.05 -5 1.05 -9.50 1.95 -10 1.95 -1.95 0 -23.95 6.05 -37.40 10.25 -8.60 2.70 -21.30 7.15 -21.75 7.65 -0.60 0.60 6.40 -1.50 13 -3.85 2.35 -0.85 5.45 -1.70 6.90 -1.85 l2.60 -0.35 0 1.95 c0 1.10 -0.20 2.75 -0.45 3.75 -0.30 1.25 -0.20 2.30 0.25 3.40 0.35 0.85 0.70 1.55 0.80 1.55 0.10 0 0.05 -1.40 0 -3.10z m56.40 -67.35 c0 -6.25 -0.50 -7.95 -1.40 -4.50 -0.75 2.90 -2.60 5.35 -4.75 6.20 -2.30 0.90 -17.55 1.10 -19.50 0.20 -2.15 -0.95 -2.35 -2.30 -2.35 -14.45 l0 -11.50 7 0 c8.70 0 10.10 0.45 11.55 3.75 0.55 1.25 1.20 2.15 1.50 2 0.60 -0.40 0.60 -12.25 -0.05 -12.25 -0.25 0 -0.50 0.20 -0.50 0.45 0 0.20 -0.95 1.05 -2.05 1.85 -1.95 1.35 -2.40 1.45 -8.50 1.60 -3.50 0.15 -7 0.05 -7.70 -0.10 l-1.25 -0.30 0 -11.20 c0 -10.55 0.05 -11.25 1.05 -12.50 l1 -1.30 9.25 0 c11.05 0 11.45 0.10 13.35 4.40 0.75 1.65 1.35 3.35 1.35 3.80 0 0.50 0.25 0.70 0.50 0.55 0.60 -0.35 0.70 -13.75 0.10 -13.75 -0.20 0 -0.60 0.20 -0.90 0.45 -1.10 1.10 -7.20 1.55 -21.05 1.55 -8.05 0 -14.65 0.10 -14.65 0.20 0 0.10 0.70 1.70 1.55 3.50 2.25 4.80 2.55 8.55 2.35 31.25 -0.15 19.40 -0.20 20 -1.20 21.40 -0.60 0.75 -2 1.75 -3.15 2.20 -1.15 0.40 -1.90 0.90 -1.75 1.10 0.20 0.20 9 0.35 19.50 0.35 12.20 0 19.25 0.20 19.45 0.50 0.90 1.45 1.25 -0.05 1.25 -5.45z m50.75 -6 c-0.20 -0.50 -0.70 0.25 -1.50 2.15 -2.35 5.85 -3.80 6.45 -14.60 6.20 -6.05 -0.10 -7.80 -0.30 -8.40 -0.95 -1.35 -1.35 -1.75 -6.35 -1.75 -23.65 0 -20 0.45 -24.60 2.75 -29.40 l1.65 -3.40 -8.45 0 c-4.65 0 -8.45 0.15 -8.45 0.40 0 0.20 1.20 0.90 2.65 1.60 2.05 1 2.70 1.60 3.20 3 0.85 2.55 0.90 49.25 0 50.95 -0.65 1.35 -3.10 2.95 -4.45 3 -0.50 0.05 -0.90 0.30 -0.90 0.55 0 0.30 6.40 0.50 18.15 0.55 9.95 0 18.55 0.20 19.10 0.40 0.95 0.40 1 0.15 1.15 -5.10 0.05 -3.05 0 -5.90 -0.15 -6.30z m31.45 10.35 c0.85 -2.90 13.90 -42.55 15.70 -47.60 1.25 -3.55 3.05 -7.55 3.95 -8.90 0.90 -1.30 1.65 -2.50 1.65 -2.65 0 -0.15 -3.15 -0.25 -7 -0.25 -6.45 0 -8.55 0.45 -6.05 1.25 0.50 0.15 1.55 0.85 2.25 1.60 1.20 1.20 1.30 1.60 1.30 5.75 0 3.50 -0.30 5.30 -1.45 8.80 -0.75 2.40 -2.45 7.75 -3.80 11.85 -1.30 4.15 -3.35 10.45 -4.55 14 -1.20 3.60 -2.35 7.45 -2.50 8.65 -0.30 2 -0.40 2.10 -2 2.10 -2.10 0 -2.10 -0.05 -5.70 -11.50 -1.40 -4.55 -3.35 -10.50 -4.30 -13.25 -0.95 -2.75 -2.15 -6.45 -2.65 -8.25 -0.55 -1.80 -1.70 -5.25 -2.50 -7.70 -1.80 -5.25 -2.05 -9.20 -0.65 -10.45 0.50 -0.45 1.65 -1.10 2.50 -1.40 0.90 -0.30 1.60 -0.75 1.60 -1 0 -0.25 -3.80 -0.45 -8.60 -0.45 l-8.60 0 2.05 2.15 c3.05 3.15 4.30 6.10 9.60 22.60 2.30 7.15 4 12.15 5.80 17.25 0.95 2.60 1.95 5.75 2.30 7 0.30 1.20 1.15 3.80 1.90 5.75 0.80 1.90 1.55 3.90 1.70 4.40 0.25 0.70 0.95 0.85 4.10 0.85 2.60 0 3.85 -0.20 3.95 -0.60z m32.90 -0.65 c-1.05 -6.05 -0.40 -12.10 2 -18.75 l1.20 -3.25 11.25 -0.15 11.30 -0.10 2.55 7.75 c1.45 4.30 2.60 8.65 2.60 9.70 0 2.45 -1.50 4.40 -3.75 4.85 -3.80 0.70 -0.75 1.20 7.35 1.20 l8.60 0 -1.70 -1.60 c-3.30 -3.25 -4 -4.80 -9.80 -21.65 -1.25 -3.55 -2.70 -7.85 -3.20 -9.50 -0.50 -1.65 -2.20 -6.60 -3.80 -11 -1.55 -4.40 -3.40 -9.80 -4.15 -12 l-1.30 -4 -7.40 -0.15 c-7.30 -0.15 -8.95 0.25 -5.75 1.35 4.20 1.50 4.40 3.85 1.10 13.55 -1.25 3.70 -2.90 8.65 -3.70 11 -0.80 2.35 -2.60 7.50 -4 11.50 -1.40 4 -3.10 8.95 -3.75 11 -1.70 5.20 -3.75 8.30 -6.40 9.50 -1.15 0.55 -2.50 1 -3 1 -0.50 0 -0.75 0.25 -0.60 0.50 0.20 0.35 2.95 0.50 7.40 0.40 6.80 -0.15 7.10 -0.20 6.95 -1.15z m32.30 -210.95 c-28.45 -28 -50.30 -49.65 -69.70 -68.90 -11.05 -10.95 -20.25 -19.90 -20.50 -19.90 -0.25 0 -1.40 0.95 -2.50 2.15 -2.75 2.80 -80.45 79.75 -91.80 90.85 l-8.95 8.75 0.15 46.60 0.15 46.60 9 -8.85 c4.95 -4.85 27.65 -27.30 50.40 -49.85 39.80 -39.40 41.50 -41 43.40 -41.15 l2 -0.15 20.35 20.15 c20.95 20.80 37.60 37.20 65.35 64.55 l16 15.75 0.15 -46.55 0.15 -46.60 -13.65 -13.45z"/>
  <path d="M459.50 469.80 c0 -0.95 1.60 -6.60 3.55 -12.50 l3.60 -10.80 1.70 0 c1.95 0 1.65 -0.60 5.25 9.75 3.15 9.05 3.90 11.65 3.90 13.65 l0 1.60 -9 0 -9 0 0 -1.70z"/>
 </g>
 <g fill="#fbfcfd">
  <path d="M404.75 614.85 c-2.20 -0.70 -4.05 -3.15 -3.50 -4.80 0.25 -0.85 0.65 -0.95 2.90 -0.70 3.60 0.35 4.70 -0.65 7.85 -7.20 2.60 -5.45 5.80 -15.25 5.25 -16.15 -0.15 -0.30 -1.25 -0.50 -2.45 -0.50 -1.80 0 -2.25 -0.20 -2.70 -1.25 -1.20 -2.65 -0.10 -7.30 2.20 -9.35 1.80 -1.60 5.65 -2.95 8.60 -3.05 l2.85 -0.10 -0.05 2.50 c-0.15 5.30 -5.15 24.70 -7.70 29.80 -0.75 1.60 -1.95 3.65 -2.60 4.55 -1.60 2.30 -5.60 5.90 -6.55 5.90 -0.45 0 -0.95 0.25 -1.10 0.50 -0.35 0.60 -0.45 0.60 -3 -0.15z m15 -37.95 c0.40 -1.60 -0.40 -1.85 -2.05 -0.65 -1.35 0.95 -2.85 4.10 -2.45 5.15 0.25 0.65 0.65 0.45 2.25 -1.20 1.05 -1.05 2.10 -2.55 2.25 -3.30z"/>
  <path d="M270.60 599.20 c-4.65 -1.70 -5.90 -6.65 -3.05 -12.35 2.75 -5.55 8.30 -13.15 12.65 -17.30 1 -0.95 1.80 -2.05 1.80 -2.35 0 -0.35 -0.60 -1.75 -1.30 -3.05 -1.05 -1.95 -1.25 -2.85 -1 -4.90 0.15 -1.35 0.40 -3 0.55 -3.60 0.30 -1 0.25 -1.05 -1.35 -0.65 -2 0.50 -5.45 1.60 -8.15 2.65 -6.45 2.45 -10.50 3.45 -11.90 2.90 -1.65 -0.65 -2.25 -1.90 -1.30 -2.80 1.35 -1.30 21.75 -8.15 36.95 -12.45 10.05 -2.80 21.65 -5.80 22.65 -5.80 0.50 0 5 -0.90 10 -1.95 5 -1.10 12.05 -2.45 15.60 -3.05 3.60 -0.55 8.85 -1.45 11.75 -1.95 2.90 -0.50 6.95 -1.10 9 -1.25 2.05 -0.20 6.10 -0.65 9 -1.05 21.20 -2.80 47.65 -4.05 75.75 -3.60 18.05 0.35 36.55 1.50 45.10 2.85 1.85 0.30 6.35 0.85 10.05 1.25 5.85 0.60 13.10 1.85 29.85 5.05 6.80 1.30 8.50 2.50 6.15 4.35 -1.25 1.05 -2.85 1 -9.40 -0.35 -19.05 -3.85 -41.80 -6.95 -62.50 -8.35 -11.15 -0.80 -46.50 -0.80 -60.50 -0.05 -9.85 0.55 -28.20 2.25 -30.85 2.85 -0.60 0.15 -3.65 0.45 -6.75 0.70 -8.80 0.75 -31.05 4.40 -41.15 6.80 -2.75 0.65 -6 1.35 -7.25 1.50 -2.60 0.35 -19.05 4.55 -24.80 6.35 -2 0.65 -2 0.65 -1.40 2.15 0.95 2.15 0.85 3.45 -0.40 5 -1 1.30 -1.10 1.35 -1.75 0.45 -0.35 -0.50 -0.65 -1.30 -0.65 -1.75 0 -0.50 -0.25 -1.50 -0.60 -2.20 -1.65 -3.65 -7.40 1.35 -7.40 6.45 0 2.55 1.25 3.75 4.80 4.35 4.05 0.70 4.55 1.05 3.95 2.75 -0.35 0.90 -1.60 1.95 -4 3.30 -4.05 2.30 -5.50 3.55 -8.55 7.50 -2.60 3.35 -7.15 11.05 -7.75 13.10 -0.30 1.10 -0.25 1.80 0.30 2.65 1.80 2.70 8.10 0.85 24.40 -7.10 4.20 -2.05 8.05 -3.75 8.50 -3.75 0.95 0 1 -0.10 2.40 -8.50 0.55 -3.45 1.55 -8.50 2.20 -11.25 0.65 -2.75 1.35 -6 1.50 -7.25 0.55 -3.50 1.50 -5 3.20 -5 2.85 0 2.80 2.70 -0.30 18 -0.70 3.45 -1.60 8.05 -1.95 10.25 -0.35 2.20 -0.75 4.60 -0.90 5.40 -0.25 1.10 -0.10 1.35 0.70 1.35 2.10 0 2.15 2.90 0.15 6.60 -2.15 4 -5.40 4.90 -6.65 1.85 -0.35 -0.85 -0.55 -2.80 -0.40 -4.70 0.10 -1.80 0.10 -3.25 -0.05 -3.25 -0.10 0 -0.60 0.30 -1 0.70 -1.25 1.05 -6 4.30 -6.35 4.30 -0.15 0 -1.15 0.65 -2.15 1.40 -2.40 1.85 -9.80 5.50 -13.15 6.45 -3.85 1.10 -9.70 1.30 -12.30 0.35z"/>
  <path d="M404.65 598.25 c-0.15 -0.50 -0.15 -4.65 0 -9.30 0.15 -4.65 0.20 -8.45 0.10 -8.45 -0.10 0 -1.35 2.15 -2.85 4.80 -2.40 4.35 -5.20 7.70 -6.40 7.70 -0.30 0 -0.95 -0.45 -1.50 -1 -1.20 -1.20 -1.30 -4.30 -0.25 -12 0.50 -3.85 0.90 -5.40 1.55 -5.85 2.50 -1.80 4.50 0.40 3.95 4.35 -0.45 3.20 0.20 3.20 2.25 0 2.30 -3.55 5.50 -5.05 7 -3.25 0.50 0.60 0.50 1.70 0.10 5.15 -0.35 2.40 -0.85 6.70 -1.10 9.60 -0.55 5.40 -1.20 8.25 -2.05 8.75 -0.25 0.20 -0.60 -0.05 -0.80 -0.50z"/>
  <path d="M505.10 596.40 c-0.30 -0.65 -0.90 -2 -1.30 -3.05 -0.85 -2.05 -0.90 -2.05 -3.65 -0.05 -2 1.50 -3.40 1.50 -4.35 0.10 -1.25 -2 -1.40 -4.50 -0.50 -10.40 0.45 -3.15 0.95 -6.55 1.05 -7.50 0.30 -2.05 0.95 -3 2.10 -3 2.05 0.05 2.15 0.50 1.30 7.15 -0.40 3.45 -0.75 6.90 -0.75 7.70 l0.05 1.40 1.15 -1.40 c0.60 -0.80 2.45 -3.80 4.10 -6.70 3.70 -6.65 4.50 -7.65 5.95 -7.65 2.65 0 2.60 3.15 -0.05 13.40 -1.05 4.05 -1.15 4.95 -0.65 6.65 0.55 1.80 0.50 2.05 -0.55 3.20 -1.45 1.55 -3.15 1.60 -3.90 0.15z"/>
  <path d="M321.35 596.40 c-1.90 -0.70 -3.35 -4.05 -3.35 -7.80 0 -4 2.15 -11.65 3.95 -14.25 1.90 -2.80 3.55 -3.85 6 -3.85 2.30 0 4.05 1.70 4.05 4 0 2.05 -2.70 6.85 -5.55 9.85 -1.35 1.40 -2.45 2.80 -2.45 3.10 0 0.25 -0.15 0.80 -0.30 1.20 -0.55 1.45 1.20 2.40 3.85 2.05 2.05 -0.30 2.50 -0.20 2.75 0.55 0.55 1.35 -0.80 3.35 -3.05 4.60 -2.15 1.20 -3.70 1.35 -5.90 0.55z m6.15 -18.90 c0.80 -1.50 0.85 -2 0.35 -2 -0.70 0 -1.85 2 -1.85 3.25 0 1.20 0.40 0.85 1.50 -1.25z"/>
  <path d="M370.70 595.75 c-1.25 -1.90 -1.40 -4.95 -0.55 -11.05 0.45 -3 0.90 -6.90 1.10 -8.70 0.15 -1.80 0.55 -4.70 0.85 -6.45 0.65 -3.70 0.40 -4.05 -2.95 -4.05 -2.05 0 -2.15 -0.10 -2.15 -1.45 0 -1.30 0.20 -1.50 2.45 -2.05 3.35 -0.80 4.40 -2.05 4.65 -5.75 0.25 -3.80 1.25 -5.75 3.25 -6.60 2.45 -0.95 3.30 0.10 2.95 3.80 -0.40 3.75 0.10 4.50 2.30 3.60 2.05 -0.85 5.40 -1.30 5.40 -0.75 0 0.90 -0.85 1.65 -4.55 4.10 -2.15 1.50 -4.05 3.15 -4.40 3.95 -1.05 2.30 -3.40 20.70 -2.75 21.70 0.15 0.25 0.60 0.45 1 0.45 1.80 0 -0.40 7.15 -2.85 9.25 -1.90 1.60 -2.70 1.60 -3.75 0z"/>
  <path d="M447.35 596.15 c-1.60 -1.85 -2.65 -6.15 -3.85 -16.65 -0.30 -2.35 -0.90 -5.95 -1.30 -8 -0.45 -2.05 -1 -4.65 -1.25 -5.75 -0.20 -1.10 -0.40 -3.60 -0.45 -5.55 0 -2.85 0.15 -3.65 0.80 -3.90 1.25 -0.45 2.45 -0.35 3.40 0.35 0.85 0.60 2.35 6.20 3.25 12.30 0.45 2.80 2.35 12 2.85 13.70 0.15 0.45 0.45 0.85 0.65 0.85 0.20 0 1.45 -2.75 2.80 -6.10 5 -12.75 7.35 -17.40 11.90 -23.25 3.95 -5.10 6.85 -7.70 6.85 -6.15 0 0.75 -1.95 4.45 -5.35 10.25 -5.70 9.75 -7.30 13.30 -13.60 30.80 -2.65 7.30 -4.60 9.40 -6.70 7.10z"/>
  <path d="M517.65 596.15 c-2.15 -1.10 -2.85 -3.35 -2.75 -8.40 0.15 -6.95 2.95 -14.25 6.25 -16.30 2.25 -1.35 4.60 -1.25 6.15 0.30 1.10 1.15 1.25 1.55 0.95 3.40 -0.50 2.95 -1.85 5.35 -4.95 8.85 -2.75 3.10 -3.50 4.80 -2.65 6.25 0.40 0.70 0.90 0.80 3.10 0.50 2.95 -0.35 3.55 0.05 3.05 2 -0.75 3 -6.10 5 -9.15 3.40z m6.85 -19.75 c0 -1.45 -0.75 -1 -1.40 0.75 -0.35 0.90 -0.60 1.90 -0.60 2.15 0.05 0.85 2 -2.05 2 -2.90z"/>
  <path d="M382 594.65 c-1.25 -1.60 -1.25 -2.45 -0.05 -8 0.55 -2.40 1.15 -5.90 1.30 -7.70 0.45 -4.75 2.85 -7 5.50 -5.25 1.35 0.90 1.65 3.15 0.75 5.55 -0.25 0.70 -0.95 3.70 -1.55 6.65 -1.30 6.65 -2.15 8.80 -3.70 9.50 -1.05 0.50 -1.35 0.40 -2.25 -0.75z"/>
  <path d="M484 595.60 c-2.15 -0.75 -2.55 -4.35 -1.25 -12.20 0.40 -2.55 1 -6.20 1.30 -8.15 0.30 -1.90 1.10 -5.85 1.80 -8.75 0.70 -2.90 1.55 -7.15 1.95 -9.45 0.80 -4.85 1.70 -6.55 3.45 -6.55 1.35 0 2.25 1.25 2.25 3.10 0 1.45 -1 7.15 -3.55 20.50 -1.15 5.70 -1.90 10.60 -1.70 10.90 0.15 0.25 0.60 0.50 1 0.50 1.95 0 1.70 3.50 -0.50 6.95 -1.65 2.65 -3.20 3.65 -4.75 3.15z"/>
  <path d="M335.45 594.55 c-1.35 -1.05 -2.15 -7.60 -1.85 -14.90 0.25 -5.60 0.70 -6.65 2.90 -6.65 2.05 0 2.70 1.15 2.75 4.90 0 2 0.20 3.35 0.55 3.45 0.35 0.10 1.25 -0.85 2 -2.10 2.75 -4.40 4.50 -6.50 5.60 -6.65 1.60 -0.25 1.40 0.80 -1.10 5.80 -1.20 2.40 -3 6.50 -4.05 9.10 -2.85 7.25 -4.50 8.95 -6.80 7.05z"/>
  <path d="M358.15 594.40 c-0.55 -0.65 -1.20 -1.65 -1.40 -2.30 -0.25 -0.85 -0.55 -1.05 -1.15 -0.80 -0.50 0.20 -1.90 0.45 -3.15 0.60 -3.20 0.25 -3.95 -0.60 -3.95 -4.60 0 -2.65 0.25 -3.50 1.80 -6.10 2.40 -4 3.50 -5.05 6.95 -6.45 2.65 -1.05 3.05 -1.10 4.35 -0.45 2.35 1.20 2.60 2.20 1.90 8.40 -1.30 12 -2.55 14.75 -5.35 11.70z m-1.45 -11 c2.15 -3.35 2.45 -4.90 1 -4.90 -0.80 0 -5.20 6.35 -5.20 7.55 0 2.45 1.55 1.50 4.20 -2.65z"/>
  <path d="M473.35 594.65 c-0.40 -0.50 -0.95 -1.50 -1.10 -2.25 -0.40 -1.60 -0.35 -1.60 -3.10 -0.65 -3.65 1.25 -5.65 -0.35 -5.65 -4.45 0 -4.70 4.10 -10.50 8.95 -12.65 1.90 -0.85 2.85 -1.05 3.20 -0.70 0.30 0.30 0.95 0.55 1.40 0.55 2.55 0 2.65 3.90 0.35 16.25 -0.70 3.75 -1.20 4.75 -2.35 4.75 -0.50 0 -1.25 -0.40 -1.70 -0.85z m-1.35 -11.45 c1.90 -3 2.30 -4.70 1.05 -4.70 -1.25 0 -5.85 7.05 -5.35 8.30 0.50 1.25 2 0 4.30 -3.60z"/>
  <path d="M387.80 565.55 c-1.80 -1.95 0.30 -5 2.95 -4.35 1.60 0.40 1.90 1.65 0.85 3.50 -1.10 1.85 -2.60 2.20 -3.80 0.85z"/>
  <path d="M337 500.75 l-1.15 -1.25 -19.15 0 c-20.50 0 -20.50 0 -20.10 -2.55 0.10 -0.75 0.80 -1.30 2.35 -1.90 1.20 -0.45 2.65 -1.45 3.25 -2.20 1 -1.40 1.05 -2.05 1.20 -19.90 0.20 -22.30 -0.05 -25.10 -2.90 -30.80 -1.65 -3.40 -1.95 -4.35 -1.50 -4.95 0.50 -0.60 3.10 -0.70 15.20 -0.70 14.70 0 19.40 -0.40 21.60 -1.85 0.65 -0.40 1.65 -0.65 2.30 -0.55 1.15 0.15 1.15 0.20 1.30 8.35 0.05 4.55 -0.05 8.40 -0.25 8.60 -0.25 0.20 -1.05 0.45 -1.85 0.55 -1.30 0.15 -1.50 -0.05 -2.05 -1.85 -1 -3.35 -2.60 -6 -4 -6.65 -0.80 -0.40 -4.10 -0.60 -9 -0.60 l-7.70 0 -1 1.30 c-1 1.25 -1.05 2 -1.05 11 l0 9.70 1.30 0.30 c0.70 0.20 3.50 0.20 6.20 0.10 5.35 -0.25 6.45 -0.70 9.30 -3.75 1.55 -1.60 1.60 -1.65 2.65 -0.80 1.05 0.85 1.10 1.25 0.95 8.35 l-0.15 7.50 -1.65 0.65 -1.60 0.65 -1.25 -2.75 c-1.60 -3.70 -2.95 -4.25 -10.25 -4.25 l-5.50 0 0 10 c0 10.60 0.25 12 2.35 12.95 1.90 0.85 14.20 0.70 16.55 -0.20 2.25 -0.90 4.35 -3.90 4.85 -6.80 0.20 -1.05 0.50 -2.05 0.65 -2.15 0.20 -0.10 1.10 0.10 2 0.45 l1.60 0.70 0 7.45 c0 6.60 -0.10 7.55 -0.90 8.25 -1.20 1.10 -1.20 1.10 -2.60 -0.40z"/>
  <path d="M388.35 500.85 c-0.70 -1.10 -0.80 -1.10 -19.40 -1.25 -16.80 -0.10 -18.75 -0.20 -19.30 -0.95 -1.05 -1.40 -0.75 -2.60 0.75 -2.95 2.20 -0.55 4.30 -1.95 5 -3.25 0.45 -0.90 0.60 -6.55 0.50 -24.45 -0.15 -26.45 0.05 -25.20 -4.25 -26.80 -3.20 -1.15 -3.40 -1.40 -2.65 -3.15 l0.60 -1.55 9.95 0 c9.10 0 9.95 0.05 10.40 0.90 0.40 0.70 0.20 1.35 -0.65 2.65 -1.95 2.85 -3.20 6.50 -3.75 10.90 -0.70 5.25 -0.70 34.25 -0.05 38.25 0.70 4.40 0.90 4.55 8.65 4.70 5.55 0.10 6.90 0 8.35 -0.75 2 -1.05 3.75 -3.45 4.60 -6.35 0.80 -2.80 1.05 -3 2.85 -2.10 l1.55 0.85 0 7.65 c0 7.60 0 7.65 -1.20 8.20 -1.05 0.45 -1.30 0.40 -1.95 -0.55z"/>
  <path d="M411.65 498.65 c-0.15 -0.50 -0.90 -2.50 -1.70 -4.40 -0.75 -1.95 -1.60 -4.55 -1.90 -5.75 -0.35 -1.25 -1.35 -4.40 -2.30 -7 -1.80 -5.10 -3.50 -10.10 -5.80 -17.25 -5.45 -17 -6.50 -19.40 -10.05 -23.05 -1.60 -1.65 -2.45 -2.90 -2.30 -3.50 0.15 -0.90 0.85 -0.95 10.45 -1.10 l10.30 -0.10 0.50 1.70 c0.55 1.75 0.50 1.75 -1.55 2.55 -2.65 1.05 -3.80 2.15 -3.80 3.50 0 0.60 0.70 3.10 1.55 5.55 0.80 2.45 1.95 5.90 2.50 7.70 0.50 1.80 1.70 5.50 2.65 8.25 0.95 2.75 2.90 8.70 4.30 13.25 1.40 4.55 2.95 9.05 3.35 10 l0.80 1.75 0.60 -2.75 c0.30 -1.55 1.50 -5.50 2.60 -8.75 1.15 -3.30 3.10 -9.35 4.40 -13.50 1.35 -4.10 3.05 -9.45 3.80 -11.85 2.55 -7.80 1.90 -11.45 -2.35 -13.20 -1.85 -0.80 -1.95 -1.05 -1.10 -2.95 l0.55 -1.25 8.50 0.10 c10.45 0.20 10.50 0.25 7.25 5 -1.40 2.10 -3 5.50 -4.50 9.70 -1.80 5.05 -14.85 44.70 -15.70 47.60 -0.10 0.40 -1.65 0.60 -5.45 0.60 -4.60 0 -5.30 -0.10 -5.60 -0.85z"/>
  <path d="M437.95 498.15 c-0.60 -1.65 -0.25 -2.65 0.90 -2.65 0.50 0 1.85 -0.45 3 -1 2.65 -1.20 4.70 -4.30 6.40 -9.50 0.65 -2.05 2.35 -7 3.75 -11 1.40 -4 3.20 -9.15 4 -11.50 0.80 -2.35 2.45 -7.30 3.70 -11 1.25 -3.70 2.30 -7.10 2.30 -7.55 0 -1.05 -1.45 -2.30 -3.55 -3.05 -2.15 -0.70 -2.45 -1.20 -1.85 -3 l0.50 -1.40 8.80 0.10 8.85 0.15 1.30 4 c0.75 2.20 2.60 7.60 4.15 12 1.60 4.40 3.30 9.35 3.80 11 1.40 4.45 5.15 15.25 7.40 21.45 2 5.40 3.75 8.15 6.95 10.95 1.35 1.20 1.55 1.60 1.15 2.40 -0.50 0.90 -1.20 0.95 -10.80 0.95 l-10.20 0 -0.55 -1.35 c-0.70 -1.80 -0.40 -2.25 1.80 -2.85 1.05 -0.30 2.35 -1.15 2.90 -1.90 l1 -1.35 -2.65 -8.05 -2.65 -8 -9.80 0.10 -9.75 0.15 -1.15 3.25 c-1.40 3.75 -2.65 9.35 -2.65 11.60 0 0.85 0.35 2.75 0.85 4.20 1.30 4.15 1.15 4.20 -8.90 4.20 l-8.45 0 -0.55 -1.35z m37.75 -29.50 c-0.20 -0.80 -0.65 -2.30 -1.05 -3.40 -0.40 -1.10 -1.60 -4.60 -2.65 -7.75 -2.15 -6.40 -3.45 -9.70 -3.75 -9.40 -0.20 0.20 -7.25 21.25 -7.25 21.65 0 0.15 3.40 0.25 7.50 0.25 l7.50 0 -0.30 -1.35z"/>
  <path d="M291.50 395.95 c0 -0.40 0 -22.75 0 -49.70 l0 -49 8.90 -8.75 c4.95 -4.80 27.15 -26.75 49.35 -48.75 47 -46.55 44.20 -43.80 45.60 -44.95 l1.10 -0.90 20.90 20.70 c24.65 24.45 51.55 51.05 70.55 69.65 l13.60 13.40 0 49.45 c0 29.85 -0.20 49.40 -0.45 49.30 -0.25 -0.05 -12.65 -12.20 -27.60 -26.90 -14.90 -14.70 -29.05 -28.65 -31.40 -31 -2.40 -2.35 -13.60 -13.45 -24.90 -24.65 -11.35 -11.25 -20.85 -20.35 -21.10 -20.25 -0.25 0.05 -19.10 18.60 -41.90 41.15 -32.35 32.05 -56.45 55.90 -62.45 61.70 -0.10 0.10 -0.20 -0.10 -0.20 -0.50z"/>
 </g>
</svg>